<svg xmlns="http://www.w3.org/2000/svg" version="1.1" xmlns:xlink="http://www.w3.org/1999/xlink" xmlns:svgjs="http://svgjs.dev/svgjs" width="1440" height="560" preserveAspectRatio="none" viewBox="0 0 1440 560"><g mask="url(&quot;#SvgjsMask1020&quot;)" fill="none"><rect width="1440" height="560" x="0" y="0" fill="#0e2a47"></rect><path d="M-103.51 340.02L-103.51 340.02" stroke="rgba(65, 126, 255, 1)" stroke-width="1.5"></path><path d="M-103.51 340.02L-75.35 502.74" stroke="rgba(65, 126, 255, 1)" stroke-width="1.5"></path><path d="M-103.51 340.02L109.81 401.04" stroke="rgba(65, 126, 255, 1)" stroke-width="1.5"></path><path d="M-103.51 340.02L52.59 506.88" stroke="rgba(65, 126, 255, 1)" stroke-width="1.5"></path><path d="M-103.51 340.02L188.05 381.04" stroke="rgba(65, 126, 255, 1)" stroke-width="1.5"></path><path d="M-103.51 340.02L-57.41 694.13" stroke="rgba(65, 126, 255, 1)" stroke-width="1.5"></path><path d="M-75.35 502.74L-75.35 502.74" stroke="rgba(65, 126, 255, 1)" stroke-width="1.5"></path><path d="M-75.35 502.74L52.59 506.88" stroke="rgba(65, 126, 255, 1)" stroke-width="1.5"></path><path d="M-75.35 502.74L-57.41 694.13" stroke="rgba(65, 126, 255, 1)" stroke-width="1.5"></path><path d="M-75.35 502.74L109.81 401.04" stroke="rgba(65, 126, 255, 1)" stroke-width="1.5"></path><path d="M-75.35 502.74L105.28 662.41" stroke="rgba(65, 126, 255, 1)" stroke-width="1.5"></path><path d="M-75.35 502.74L188.05 381.04" stroke="rgba(65, 126, 255, 1)" stroke-width="1.5"></path><path d="M-57.41 694.13L-57.41 694.13" stroke="rgba(65, 126, 255, 1)" stroke-width="1.5"></path><path d="M-57.41 694.13L105.28 662.41" stroke="rgba(65, 126, 255, 1)" stroke-width="1.5"></path><path d="M-57.41 694.13L52.59 506.88" stroke="rgba(65, 126, 255, 1)" stroke-width="1.5"></path><path d="M109.81 401.04L109.81 401.04" stroke="rgba(65, 126, 255, 1)" stroke-width="1.5"></path><path d="M109.81 401.04L188.05 381.04" stroke="rgba(65, 126, 255, 1)" stroke-width="1.5"></path><path d="M109.81 401.04L52.59 506.88" stroke="rgba(65, 126, 255, 1)" stroke-width="1.5"></path><path d="M109.81 401.04L233.88 551.51" stroke="rgba(65, 126, 255, 1)" stroke-width="1.5"></path><path d="M52.59 506.88L52.59 506.88" stroke="rgba(65, 126, 255, 1)" stroke-width="1.5"></path><path d="M105.28 662.41L105.28 662.41" stroke="rgba(65, 126, 255, 1)" stroke-width="1.5"></path><path d="M105.28 662.41L240.4 710.94" stroke="rgba(65, 126, 255, 1)" stroke-width="1.5"></path><path d="M105.28 662.41L52.59 506.88" stroke="rgba(65, 126, 255, 1)" stroke-width="1.5"></path><path d="M188.05 381.04L188.05 381.04" stroke="rgba(65, 126, 255, 1)" stroke-width="1.5"></path><path d="M188.05 381.04L233.88 551.51" stroke="rgba(65, 126, 255, 1)" stroke-width="1.5"></path><path d="M233.88 551.51L233.88 551.51" stroke="rgba(65, 126, 255, 1)" stroke-width="1.5"></path><path d="M233.88 551.51L389.57 559.68" stroke="rgba(65, 126, 255, 1)" stroke-width="1.5"></path><path d="M233.88 551.51L240.4 710.94" stroke="rgba(65, 126, 255, 1)" stroke-width="1.5"></path><path d="M240.4 710.94L240.4 710.94" stroke="rgba(65, 126, 255, 1)" stroke-width="1.5"></path><path d="M240.4 710.94L373.8 658.76" stroke="rgba(65, 126, 255, 1)" stroke-width="1.5"></path><path d="M240.4 710.94L389.57 559.68" stroke="rgba(65, 126, 255, 1)" stroke-width="1.5"></path><path d="M240.4 710.94L52.59 506.88" stroke="rgba(65, 126, 255, 1)" stroke-width="1.5"></path><path d="M240.4 710.94L530.84 662.04" stroke="rgba(65, 126, 255, 1)" stroke-width="1.5"></path><path d="M381.08 375.01L381.08 375.01" stroke="rgba(65, 126, 255, 1)" stroke-width="1.5"></path><path d="M381.08 375.01L493.62 395.79" stroke="rgba(65, 126, 255, 1)" stroke-width="1.5"></path><path d="M381.08 375.01L389.57 559.68" stroke="rgba(65, 126, 255, 1)" stroke-width="1.5"></path><path d="M381.08 375.01L188.05 381.04" stroke="rgba(65, 126, 255, 1)" stroke-width="1.5"></path><path d="M381.08 375.01L554.59 525.09" stroke="rgba(65, 126, 255, 1)" stroke-width="1.5"></path><path d="M381.08 375.01L233.88 551.51" stroke="rgba(65, 126, 255, 1)" stroke-width="1.5"></path><path d="M389.57 559.68L389.57 559.68" stroke="rgba(65, 126, 255, 1)" stroke-width="1.5"></path><path d="M389.57 559.68L373.8 658.76" stroke="rgba(65, 126, 255, 1)" stroke-width="1.5"></path><path d="M389.57 559.68L554.59 525.09" stroke="rgba(65, 126, 255, 1)" stroke-width="1.5"></path><path d="M389.57 559.68L530.84 662.04" stroke="rgba(65, 126, 255, 1)" stroke-width="1.5"></path><path d="M373.8 658.76L373.8 658.76" stroke="rgba(65, 126, 255, 1)" stroke-width="1.5"></path><path d="M493.62 395.79L493.62 395.79" stroke="rgba(65, 126, 255, 1)" stroke-width="1.5"></path><path d="M493.62 395.79L554.59 525.09" stroke="rgba(65, 126, 255, 1)" stroke-width="1.5"></path><path d="M554.59 525.09L554.59 525.09" stroke="rgba(65, 126, 255, 1)" stroke-width="1.5"></path><path d="M554.59 525.09L666.53 506.95" stroke="rgba(65, 126, 255, 1)" stroke-width="1.5"></path><path d="M554.59 525.09L530.84 662.04" stroke="rgba(65, 126, 255, 1)" stroke-width="1.5"></path><path d="M554.59 525.09L640.83 389.06" stroke="rgba(65, 126, 255, 1)" stroke-width="1.5"></path><path d="M554.59 525.09L668 648.76" stroke="rgba(65, 126, 255, 1)" stroke-width="1.5"></path><path d="M530.84 662.04L530.84 662.04" stroke="rgba(65, 126, 255, 1)" stroke-width="1.5"></path><path d="M530.84 662.04L668 648.76" stroke="rgba(65, 126, 255, 1)" stroke-width="1.5"></path><path d="M530.84 662.04L373.8 658.76" stroke="rgba(65, 126, 255, 1)" stroke-width="1.5"></path><path d="M676.38 237.14L676.38 237.14" stroke="rgba(65, 126, 255, 1)" stroke-width="1.5"></path><path d="M676.38 237.14L791.23 224.36" stroke="rgba(65, 126, 255, 1)" stroke-width="1.5"></path><path d="M676.38 237.14L640.83 389.06" stroke="rgba(65, 126, 255, 1)" stroke-width="1.5"></path><path d="M676.38 237.14L812.2 343.06" stroke="rgba(65, 126, 255, 1)" stroke-width="1.5"></path><path d="M676.38 237.14L493.62 395.79" stroke="rgba(65, 126, 255, 1)" stroke-width="1.5"></path><path d="M676.38 237.14L854.8 64.92" stroke="rgba(65, 126, 255, 1)" stroke-width="1.5"></path><path d="M640.83 389.06L640.83 389.06" stroke="rgba(65, 126, 255, 1)" stroke-width="1.5"></path><path d="M640.83 389.06L666.53 506.95" stroke="rgba(65, 126, 255, 1)" stroke-width="1.5"></path><path d="M640.83 389.06L493.62 395.79" stroke="rgba(65, 126, 255, 1)" stroke-width="1.5"></path><path d="M640.83 389.06L812.2 343.06" stroke="rgba(65, 126, 255, 1)" stroke-width="1.5"></path><path d="M666.53 506.95L666.53 506.95" stroke="rgba(65, 126, 255, 1)" stroke-width="1.5"></path><path d="M666.53 506.95L668 648.76" stroke="rgba(65, 126, 255, 1)" stroke-width="1.5"></path><path d="M666.53 506.95L493.62 395.79" stroke="rgba(65, 126, 255, 1)" stroke-width="1.5"></path><path d="M666.53 506.95L530.84 662.04" stroke="rgba(65, 126, 255, 1)" stroke-width="1.5"></path><path d="M666.53 506.95L812.2 343.06" stroke="rgba(65, 126, 255, 1)" stroke-width="1.5"></path><path d="M668 648.76L668 648.76" stroke="rgba(65, 126, 255, 1)" stroke-width="1.5"></path><path d="M668 648.76L844.33 700.69" stroke="rgba(65, 126, 255, 1)" stroke-width="1.5"></path><path d="M668 648.76L640.83 389.06" stroke="rgba(65, 126, 255, 1)" stroke-width="1.5"></path><path d="M854.8 64.92L854.8 64.92" stroke="rgba(65, 126, 255, 1)" stroke-width="1.5"></path><path d="M854.8 64.92L1006.94 39.61" stroke="rgba(65, 126, 255, 1)" stroke-width="1.5"></path><path d="M854.8 64.92L952.65 -68.96" stroke="rgba(65, 126, 255, 1)" stroke-width="1.5"></path><path d="M854.8 64.92L791.23 224.36" stroke="rgba(65, 126, 255, 1)" stroke-width="1.5"></path><path d="M854.8 64.92L969.35 245.51" stroke="rgba(65, 126, 255, 1)" stroke-width="1.5"></path><path d="M791.23 224.36L791.23 224.36" stroke="rgba(65, 126, 255, 1)" stroke-width="1.5"></path><path d="M791.23 224.36L812.2 343.06" stroke="rgba(65, 126, 255, 1)" stroke-width="1.5"></path><path d="M791.23 224.36L969.35 245.51" stroke="rgba(65, 126, 255, 1)" stroke-width="1.5"></path><path d="M812.2 343.06L812.2 343.06" stroke="rgba(65, 126, 255, 1)" stroke-width="1.5"></path><path d="M812.2 343.06L969.35 245.51" stroke="rgba(65, 126, 255, 1)" stroke-width="1.5"></path><path d="M844.33 700.69L844.33 700.69" stroke="rgba(65, 126, 255, 1)" stroke-width="1.5"></path><path d="M844.33 700.69L960.74 661.06" stroke="rgba(65, 126, 255, 1)" stroke-width="1.5"></path><path d="M844.33 700.69L964.29 492.18" stroke="rgba(65, 126, 255, 1)" stroke-width="1.5"></path><path d="M844.33 700.69L666.53 506.95" stroke="rgba(65, 126, 255, 1)" stroke-width="1.5"></path><path d="M952.65 -68.96L952.65 -68.96" stroke="rgba(65, 126, 255, 1)" stroke-width="1.5"></path><path d="M952.65 -68.96L1006.94 39.61" stroke="rgba(65, 126, 255, 1)" stroke-width="1.5"></path><path d="M1006.94 39.61L1006.94 39.61" stroke="rgba(65, 126, 255, 1)" stroke-width="1.5"></path><path d="M1006.94 39.61L1143.83 52.16" stroke="rgba(65, 126, 255, 1)" stroke-width="1.5"></path><path d="M1006.94 39.61L1123.75 206.95" stroke="rgba(65, 126, 255, 1)" stroke-width="1.5"></path><path d="M969.35 245.51L969.35 245.51" stroke="rgba(65, 126, 255, 1)" stroke-width="1.5"></path><path d="M969.35 245.51L994.54 391.36" stroke="rgba(65, 126, 255, 1)" stroke-width="1.5"></path><path d="M969.35 245.51L1123.75 206.95" stroke="rgba(65, 126, 255, 1)" stroke-width="1.5"></path><path d="M969.35 245.51L1006.94 39.61" stroke="rgba(65, 126, 255, 1)" stroke-width="1.5"></path><path d="M994.54 391.36L994.54 391.36" stroke="rgba(65, 126, 255, 1)" stroke-width="1.5"></path><path d="M994.54 391.36L964.29 492.18" stroke="rgba(65, 126, 255, 1)" stroke-width="1.5"></path><path d="M994.54 391.36L1150.12 402.53" stroke="rgba(65, 126, 255, 1)" stroke-width="1.5"></path><path d="M994.54 391.36L1138.13 505.98" stroke="rgba(65, 126, 255, 1)" stroke-width="1.5"></path><path d="M994.54 391.36L812.2 343.06" stroke="rgba(65, 126, 255, 1)" stroke-width="1.5"></path><path d="M964.29 492.18L964.29 492.18" stroke="rgba(65, 126, 255, 1)" stroke-width="1.5"></path><path d="M964.29 492.18L960.74 661.06" stroke="rgba(65, 126, 255, 1)" stroke-width="1.5"></path><path d="M960.74 661.06L960.74 661.06" stroke="rgba(65, 126, 255, 1)" stroke-width="1.5"></path><path d="M960.74 661.06L1159.01 673.48" stroke="rgba(65, 126, 255, 1)" stroke-width="1.5"></path><path d="M1162.35 -107L1162.35 -107" stroke="rgba(65, 126, 255, 1)" stroke-width="1.5"></path><path d="M1162.35 -107L1307.19 -87.46" stroke="rgba(65, 126, 255, 1)" stroke-width="1.5"></path><path d="M1162.35 -107L1143.83 52.16" stroke="rgba(65, 126, 255, 1)" stroke-width="1.5"></path><path d="M1162.35 -107L952.65 -68.96" stroke="rgba(65, 126, 255, 1)" stroke-width="1.5"></path><path d="M1162.35 -107L1006.94 39.61" stroke="rgba(65, 126, 255, 1)" stroke-width="1.5"></path><path d="M1162.35 -107L1308.12 70.79" stroke="rgba(65, 126, 255, 1)" stroke-width="1.5"></path><path d="M1162.35 -107L1395.87 -56.93" stroke="rgba(65, 126, 255, 1)" stroke-width="1.5"></path><path d="M1143.83 52.16L1143.83 52.16" stroke="rgba(65, 126, 255, 1)" stroke-width="1.5"></path><path d="M1143.83 52.16L1123.75 206.95" stroke="rgba(65, 126, 255, 1)" stroke-width="1.5"></path><path d="M1143.83 52.16L1308.12 70.79" stroke="rgba(65, 126, 255, 1)" stroke-width="1.5"></path><path d="M1143.83 52.16L1307.19 -87.46" stroke="rgba(65, 126, 255, 1)" stroke-width="1.5"></path><path d="M1123.75 206.95L1123.75 206.95" stroke="rgba(65, 126, 255, 1)" stroke-width="1.5"></path><path d="M1123.75 206.95L1289.38 257.21" stroke="rgba(65, 126, 255, 1)" stroke-width="1.5"></path><path d="M1123.75 206.95L1150.12 402.53" stroke="rgba(65, 126, 255, 1)" stroke-width="1.5"></path><path d="M1123.75 206.95L994.54 391.36" stroke="rgba(65, 126, 255, 1)" stroke-width="1.5"></path><path d="M1150.12 402.53L1150.12 402.53" stroke="rgba(65, 126, 255, 1)" stroke-width="1.5"></path><path d="M1150.12 402.53L1138.13 505.98" stroke="rgba(65, 126, 255, 1)" stroke-width="1.5"></path><path d="M1150.12 402.53L1278.52 396.87" stroke="rgba(65, 126, 255, 1)" stroke-width="1.5"></path><path d="M1150.12 402.53L1264.75 511.98" stroke="rgba(65, 126, 255, 1)" stroke-width="1.5"></path><path d="M1138.13 505.98L1138.13 505.98" stroke="rgba(65, 126, 255, 1)" stroke-width="1.5"></path><path d="M1138.13 505.98L1264.75 511.98" stroke="rgba(65, 126, 255, 1)" stroke-width="1.5"></path><path d="M1138.13 505.98L1159.01 673.48" stroke="rgba(65, 126, 255, 1)" stroke-width="1.5"></path><path d="M1138.13 505.98L964.29 492.18" stroke="rgba(65, 126, 255, 1)" stroke-width="1.5"></path><path d="M1138.13 505.98L1278.52 396.87" stroke="rgba(65, 126, 255, 1)" stroke-width="1.5"></path><path d="M1138.13 505.98L1249.98 644.47" stroke="rgba(65, 126, 255, 1)" stroke-width="1.5"></path><path d="M1159.01 673.48L1159.01 673.48" stroke="rgba(65, 126, 255, 1)" stroke-width="1.5"></path><path d="M1159.01 673.48L1249.98 644.47" stroke="rgba(65, 126, 255, 1)" stroke-width="1.5"></path><path d="M1307.19 -87.46L1307.19 -87.46" stroke="rgba(65, 126, 255, 1)" stroke-width="1.5"></path><path d="M1307.19 -87.46L1395.87 -56.93" stroke="rgba(65, 126, 255, 1)" stroke-width="1.5"></path><path d="M1307.19 -87.46L1308.12 70.79" stroke="rgba(65, 126, 255, 1)" stroke-width="1.5"></path><path d="M1307.19 -87.46L1412.93 68.48" stroke="rgba(65, 126, 255, 1)" stroke-width="1.5"></path><path d="M1307.19 -87.46L1546.2 -107.88" stroke="rgba(65, 126, 255, 1)" stroke-width="1.5"></path><path d="M1308.12 70.79L1308.12 70.79" stroke="rgba(65, 126, 255, 1)" stroke-width="1.5"></path><path d="M1308.12 70.79L1412.93 68.48" stroke="rgba(65, 126, 255, 1)" stroke-width="1.5"></path><path d="M1308.12 70.79L1395.87 -56.93" stroke="rgba(65, 126, 255, 1)" stroke-width="1.5"></path><path d="M1289.38 257.21L1289.38 257.21" stroke="rgba(65, 126, 255, 1)" stroke-width="1.5"></path><path d="M1289.38 257.21L1278.52 396.87" stroke="rgba(65, 126, 255, 1)" stroke-width="1.5"></path><path d="M1289.38 257.21L1433.77 230.12" stroke="rgba(65, 126, 255, 1)" stroke-width="1.5"></path><path d="M1289.38 257.21L1415.15 392.32" stroke="rgba(65, 126, 255, 1)" stroke-width="1.5"></path><path d="M1289.38 257.21L1308.12 70.79" stroke="rgba(65, 126, 255, 1)" stroke-width="1.5"></path><path d="M1289.38 257.21L1150.12 402.53" stroke="rgba(65, 126, 255, 1)" stroke-width="1.5"></path><path d="M1278.52 396.87L1278.52 396.87" stroke="rgba(65, 126, 255, 1)" stroke-width="1.5"></path><path d="M1278.52 396.87L1264.75 511.98" stroke="rgba(65, 126, 255, 1)" stroke-width="1.5"></path><path d="M1264.75 511.98L1264.75 511.98" stroke="rgba(65, 126, 255, 1)" stroke-width="1.5"></path><path d="M1264.75 511.98L1394.58 513.57" stroke="rgba(65, 126, 255, 1)" stroke-width="1.5"></path><path d="M1249.98 644.47L1249.98 644.47" stroke="rgba(65, 126, 255, 1)" stroke-width="1.5"></path><path d="M1249.98 644.47L1264.75 511.98" stroke="rgba(65, 126, 255, 1)" stroke-width="1.5"></path><path d="M1249.98 644.47L1399.99 657.4" stroke="rgba(65, 126, 255, 1)" stroke-width="1.5"></path><path d="M1395.87 -56.93L1395.87 -56.93" stroke="rgba(65, 126, 255, 1)" stroke-width="1.5"></path><path d="M1395.87 -56.93L1412.93 68.48" stroke="rgba(65, 126, 255, 1)" stroke-width="1.5"></path><path d="M1412.93 68.48L1412.93 68.48" stroke="rgba(65, 126, 255, 1)" stroke-width="1.5"></path><path d="M1412.93 68.48L1548.55 91.08" stroke="rgba(65, 126, 255, 1)" stroke-width="1.5"></path><path d="M1412.93 68.48L1433.77 230.12" stroke="rgba(65, 126, 255, 1)" stroke-width="1.5"></path><path d="M1433.77 230.12L1433.77 230.12" stroke="rgba(65, 126, 255, 1)" stroke-width="1.5"></path><path d="M1433.77 230.12L1415.15 392.32" stroke="rgba(65, 126, 255, 1)" stroke-width="1.5"></path><path d="M1433.77 230.12L1610.91 251.09" stroke="rgba(65, 126, 255, 1)" stroke-width="1.5"></path><path d="M1415.15 392.32L1415.15 392.32" stroke="rgba(65, 126, 255, 1)" stroke-width="1.5"></path><path d="M1415.15 392.32L1394.58 513.57" stroke="rgba(65, 126, 255, 1)" stroke-width="1.5"></path><path d="M1415.15 392.32L1278.52 396.87" stroke="rgba(65, 126, 255, 1)" stroke-width="1.5"></path><path d="M1394.58 513.57L1394.58 513.57" stroke="rgba(65, 126, 255, 1)" stroke-width="1.5"></path><path d="M1399.99 657.4L1399.99 657.4" stroke="rgba(65, 126, 255, 1)" stroke-width="1.5"></path><path d="M1399.99 657.4L1394.58 513.57" stroke="rgba(65, 126, 255, 1)" stroke-width="1.5"></path><path d="M1399.99 657.4L1264.75 511.98" stroke="rgba(65, 126, 255, 1)" stroke-width="1.5"></path><path d="M1399.99 657.4L1598.56 707.26" stroke="rgba(65, 126, 255, 1)" stroke-width="1.5"></path><path d="M1399.99 657.4L1159.01 673.48" stroke="rgba(65, 126, 255, 1)" stroke-width="1.5"></path><path d="M1546.2 -107.88L1546.2 -107.88" stroke="rgba(65, 126, 255, 1)" stroke-width="1.5"></path><path d="M1546.2 -107.88L1395.87 -56.93" stroke="rgba(65, 126, 255, 1)" stroke-width="1.5"></path><path d="M1546.2 -107.88L1548.55 91.08" stroke="rgba(65, 126, 255, 1)" stroke-width="1.5"></path><path d="M1546.2 -107.88L1412.93 68.48" stroke="rgba(65, 126, 255, 1)" stroke-width="1.5"></path><path d="M1546.2 -107.88L1308.12 70.79" stroke="rgba(65, 126, 255, 1)" stroke-width="1.5"></path><path d="M1546.2 -107.88L1433.77 230.12" stroke="rgba(65, 126, 255, 1)" stroke-width="1.5"></path><path d="M1548.55 91.08L1548.55 91.08" stroke="rgba(65, 126, 255, 1)" stroke-width="1.5"></path><path d="M1548.55 91.08L1610.91 251.09" stroke="rgba(65, 126, 255, 1)" stroke-width="1.5"></path><path d="M1548.55 91.08L1433.77 230.12" stroke="rgba(65, 126, 255, 1)" stroke-width="1.5"></path><path d="M1610.91 251.09L1610.91 251.09" stroke="rgba(65, 126, 255, 1)" stroke-width="1.5"></path><path d="M1610.91 251.09L1583.32 396.79" stroke="rgba(65, 126, 255, 1)" stroke-width="1.5"></path><path d="M1583.32 396.79L1583.32 396.79" stroke="rgba(65, 126, 255, 1)" stroke-width="1.5"></path><path d="M1583.32 396.79L1578.69 492.19" stroke="rgba(65, 126, 255, 1)" stroke-width="1.5"></path><path d="M1583.32 396.79L1415.15 392.32" stroke="rgba(65, 126, 255, 1)" stroke-width="1.5"></path><path d="M1583.32 396.79L1394.58 513.57" stroke="rgba(65, 126, 255, 1)" stroke-width="1.5"></path><path d="M1583.32 396.79L1433.77 230.12" stroke="rgba(65, 126, 255, 1)" stroke-width="1.5"></path><path d="M1583.32 396.79L1278.52 396.87" stroke="rgba(65, 126, 255, 1)" stroke-width="1.5"></path><path d="M1578.69 492.19L1578.69 492.19" stroke="rgba(65, 126, 255, 1)" stroke-width="1.5"></path><path d="M1578.69 492.19L1394.58 513.57" stroke="rgba(65, 126, 255, 1)" stroke-width="1.5"></path><path d="M1578.69 492.19L1415.15 392.32" stroke="rgba(65, 126, 255, 1)" stroke-width="1.5"></path><path d="M1578.69 492.19L1598.56 707.26" stroke="rgba(65, 126, 255, 1)" stroke-width="1.5"></path><path d="M1598.56 707.26L1598.56 707.26" stroke="rgba(65, 126, 255, 1)" stroke-width="1.5"></path><path d="M1598.56 707.26L1394.58 513.57" stroke="rgba(65, 126, 255, 1)" stroke-width="1.5"></path><path d="M1598.56 707.26L1583.32 396.79" stroke="rgba(65, 126, 255, 1)" stroke-width="1.5"></path><circle r="5" cx="-103.51" cy="340.02" fill="rgba(65, 126, 255, 1)"></circle><circle r="5" cx="-75.35" cy="502.74" fill="rgba(65, 126, 255, 1)"></circle><circle r="5" cx="-57.41" cy="694.13" fill="rgba(65, 126, 255, 1)"></circle><circle r="5" cx="109.81" cy="401.04" fill="rgba(65, 126, 255, 1)"></circle><circle r="5" cx="52.59" cy="506.88" fill="rgba(65, 126, 255, 1)"></circle><circle r="5" cx="105.28" cy="662.41" fill="rgba(65, 126, 255, 1)"></circle><circle r="5" cx="188.05" cy="381.04" fill="rgba(65, 126, 255, 1)"></circle><circle r="5" cx="233.88" cy="551.51" fill="rgba(65, 126, 255, 1)"></circle><circle r="5" cx="240.4" cy="710.94" fill="rgba(65, 126, 255, 1)"></circle><circle r="5" cx="381.08" cy="375.01" fill="rgba(65, 126, 255, 1)"></circle><circle r="5" cx="389.57" cy="559.68" fill="rgba(65, 126, 255, 1)"></circle><circle r="5" cx="373.8" cy="658.76" fill="rgba(65, 126, 255, 1)"></circle><circle r="5" cx="493.62" cy="395.79" fill="rgba(65, 126, 255, 1)"></circle><circle r="5" cx="554.59" cy="525.09" fill="rgba(65, 126, 255, 1)"></circle><circle r="5" cx="530.84" cy="662.04" fill="rgba(65, 126, 255, 1)"></circle><circle r="5" cx="676.38" cy="237.14" fill="rgba(65, 126, 255, 1)"></circle><circle r="5" cx="640.83" cy="389.06" fill="rgba(65, 126, 255, 1)"></circle><circle r="5" cx="666.53" cy="506.95" fill="rgba(65, 126, 255, 1)"></circle><circle r="5" cx="668" cy="648.76" fill="rgba(65, 126, 255, 1)"></circle><circle r="5" cx="854.8" cy="64.92" fill="rgba(65, 126, 255, 1)"></circle><circle r="5" cx="791.23" cy="224.36" fill="rgba(65, 126, 255, 1)"></circle><circle r="5" cx="812.2" cy="343.06" fill="rgba(65, 126, 255, 1)"></circle><circle r="5" cx="844.33" cy="700.69" fill="rgba(65, 126, 255, 1)"></circle><circle r="5" cx="952.65" cy="-68.96" fill="rgba(65, 126, 255, 1)"></circle><circle r="5" cx="1006.94" cy="39.61" fill="rgba(65, 126, 255, 1)"></circle><circle r="5" cx="969.35" cy="245.51" fill="rgba(65, 126, 255, 1)"></circle><circle r="5" cx="994.54" cy="391.36" fill="rgba(65, 126, 255, 1)"></circle><circle r="5" cx="964.29" cy="492.18" fill="rgba(65, 126, 255, 1)"></circle><circle r="5" cx="960.74" cy="661.06" fill="rgba(65, 126, 255, 1)"></circle><circle r="5" cx="1162.35" cy="-107" fill="rgba(65, 126, 255, 1)"></circle><circle r="5" cx="1143.83" cy="52.16" fill="rgba(65, 126, 255, 1)"></circle><circle r="5" cx="1123.75" cy="206.95" fill="rgba(65, 126, 255, 1)"></circle><circle r="5" cx="1150.12" cy="402.53" fill="rgba(65, 126, 255, 1)"></circle><circle r="5" cx="1138.13" cy="505.98" fill="rgba(65, 126, 255, 1)"></circle><circle r="5" cx="1159.01" cy="673.48" fill="rgba(65, 126, 255, 1)"></circle><circle r="5" cx="1307.19" cy="-87.46" fill="rgba(65, 126, 255, 1)"></circle><circle r="5" cx="1308.12" cy="70.79" fill="rgba(65, 126, 255, 1)"></circle><circle r="5" cx="1289.38" cy="257.21" fill="rgba(65, 126, 255, 1)"></circle><circle r="5" cx="1278.52" cy="396.87" fill="rgba(65, 126, 255, 1)"></circle><circle r="5" cx="1264.75" cy="511.98" fill="rgba(65, 126, 255, 1)"></circle><circle r="5" cx="1249.98" cy="644.47" fill="rgba(65, 126, 255, 1)"></circle><circle r="5" cx="1395.87" cy="-56.93" fill="rgba(65, 126, 255, 1)"></circle><circle r="5" cx="1412.93" cy="68.48" fill="rgba(65, 126, 255, 1)"></circle><circle r="5" cx="1433.77" cy="230.12" fill="rgba(65, 126, 255, 1)"></circle><circle r="5" cx="1415.15" cy="392.32" fill="rgba(65, 126, 255, 1)"></circle><circle r="5" cx="1394.58" cy="513.57" fill="rgba(65, 126, 255, 1)"></circle><circle r="5" cx="1399.99" cy="657.4" fill="rgba(65, 126, 255, 1)"></circle><circle r="5" cx="1546.2" cy="-107.88" fill="rgba(65, 126, 255, 1)"></circle><circle r="5" cx="1548.55" cy="91.08" fill="rgba(65, 126, 255, 1)"></circle><circle r="5" cx="1610.91" cy="251.09" fill="rgba(65, 126, 255, 1)"></circle><circle r="5" cx="1583.32" cy="396.79" fill="rgba(65, 126, 255, 1)"></circle><circle r="5" cx="1578.69" cy="492.19" fill="rgba(65, 126, 255, 1)"></circle><circle r="5" cx="1598.56" cy="707.26" fill="rgba(65, 126, 255, 1)"></circle><path d="M67.49 553.49L67.49 553.49" stroke="hsl(261.9, 58.2%, 63.5%)" stroke-width="1.5"></path><path d="M67.49 553.49L-63.39 531.51" stroke="hsl(261.9, 58.2%, 63.5%)" stroke-width="1.5"></path><path d="M67.49 553.49L242.81 498.61" stroke="hsl(261.9, 58.2%, 63.5%)" stroke-width="1.5"></path><path d="M67.49 553.49L-107.66 670.7" stroke="hsl(261.9, 58.2%, 63.5%)" stroke-width="1.5"></path><path d="M242.81 498.61L242.81 498.61" stroke="hsl(261.9, 58.2%, 63.5%)" stroke-width="1.5"></path><path d="M242.81 498.61L390.43 514.56" stroke="hsl(261.9, 58.2%, 63.5%)" stroke-width="1.5"></path><path d="M253.41 657.16L253.41 657.16" stroke="hsl(261.9, 58.2%, 63.5%)" stroke-width="1.5"></path><path d="M253.41 657.16L396.55 648.2" stroke="hsl(261.9, 58.2%, 63.5%)" stroke-width="1.5"></path><path d="M253.41 657.16L242.81 498.61" stroke="hsl(261.9, 58.2%, 63.5%)" stroke-width="1.5"></path><path d="M961.37 665.65L961.37 665.65" stroke="hsl(261.9, 58.2%, 63.5%)" stroke-width="1.5"></path><path d="M961.37 665.65L975.1 562.3" stroke="hsl(261.9, 58.2%, 63.5%)" stroke-width="1.5"></path><path d="M961.37 665.65L804.05 646.59" stroke="hsl(261.9, 58.2%, 63.5%)" stroke-width="1.5"></path><path d="M961.37 665.65L1153.75 703.62" stroke="hsl(261.9, 58.2%, 63.5%)" stroke-width="1.5"></path><path d="M961.37 665.65L822.62 516.55" stroke="hsl(261.9, 58.2%, 63.5%)" stroke-width="1.5"></path><path d="M961.37 665.65L1125.77 498.13" stroke="hsl(261.9, 58.2%, 63.5%)" stroke-width="1.5"></path><path d="M961.37 665.65L700.8 541.12" stroke="hsl(261.9, 58.2%, 63.5%)" stroke-width="1.5"></path><path d="M1153.75 703.62L1153.75 703.62" stroke="hsl(261.9, 58.2%, 63.5%)" stroke-width="1.5"></path><path d="M1153.75 703.62L1125.77 498.13" stroke="hsl(261.9, 58.2%, 63.5%)" stroke-width="1.5"></path><path d="M1153.75 703.62L975.1 562.3" stroke="hsl(261.9, 58.2%, 63.5%)" stroke-width="1.5"></path><path d="M1153.75 703.62L1296.51 523.34" stroke="hsl(261.9, 58.2%, 63.5%)" stroke-width="1.5"></path><path d="M1153.75 703.62L1456.27 698.27" stroke="hsl(261.9, 58.2%, 63.5%)" stroke-width="1.5"></path><path d="M1291.05 -77.69L1291.05 -77.69" stroke="hsl(261.9, 58.2%, 63.5%)" stroke-width="1.5"></path><path d="M1291.05 -77.69L1447.44 -74.89" stroke="hsl(261.9, 58.2%, 63.5%)" stroke-width="1.5"></path><path d="M1291.05 -77.69L1280.97 81.43" stroke="hsl(261.9, 58.2%, 63.5%)" stroke-width="1.5"></path><path d="M1291.05 -77.69L1415.51 78.1" stroke="hsl(261.9, 58.2%, 63.5%)" stroke-width="1.5"></path><path d="M1291.05 -77.69L1563.52 -71.39" stroke="hsl(261.9, 58.2%, 63.5%)" stroke-width="1.5"></path><path d="M1291.05 -77.69L1306.81 228.1" stroke="hsl(261.9, 58.2%, 63.5%)" stroke-width="1.5"></path><path d="M1280.97 81.43L1280.97 81.43" stroke="hsl(261.9, 58.2%, 63.5%)" stroke-width="1.5"></path><path d="M1280.97 81.43L1415.51 78.1" stroke="hsl(261.9, 58.2%, 63.5%)" stroke-width="1.5"></path><path d="M1280.97 81.43L1306.81 228.1" stroke="hsl(261.9, 58.2%, 63.5%)" stroke-width="1.5"></path><path d="M1296.51 523.34L1296.51 523.34" stroke="hsl(261.9, 58.2%, 63.5%)" stroke-width="1.5"></path><path d="M1296.51 523.34L1265.49 393.55" stroke="hsl(261.9, 58.2%, 63.5%)" stroke-width="1.5"></path><path d="M1296.51 523.34L1458.62 555.26" stroke="hsl(261.9, 58.2%, 63.5%)" stroke-width="1.5"></path><path d="M1296.51 523.34L1125.77 498.13" stroke="hsl(261.9, 58.2%, 63.5%)" stroke-width="1.5"></path><path d="M1296.51 523.34L1450.56 394.1" stroke="hsl(261.9, 58.2%, 63.5%)" stroke-width="1.5"></path><path d="M-63.39 531.51L-63.39 531.51" stroke="hsl(261.9, 58.2%, 63.5%)" stroke-width="1.5"></path><path d="M-63.39 531.51L-107.66 670.7" stroke="hsl(261.9, 58.2%, 63.5%)" stroke-width="1.5"></path><path d="M-63.39 531.51L242.81 498.61" stroke="hsl(261.9, 58.2%, 63.5%)" stroke-width="1.5"></path><path d="M-63.39 531.51L253.41 657.16" stroke="hsl(261.9, 58.2%, 63.5%)" stroke-width="1.5"></path><path d="M-107.66 670.7L-107.66 670.7" stroke="hsl(261.9, 58.2%, 63.5%)" stroke-width="1.5"></path><path d="M-107.66 670.7L253.41 657.16" stroke="hsl(261.9, 58.2%, 63.5%)" stroke-width="1.5"></path><path d="M-107.66 670.7L242.81 498.61" stroke="hsl(261.9, 58.2%, 63.5%)" stroke-width="1.5"></path><path d="M390.43 514.56L390.43 514.56" stroke="hsl(261.9, 58.2%, 63.5%)" stroke-width="1.5"></path><path d="M390.43 514.56L487.82 532.24" stroke="hsl(261.9, 58.2%, 63.5%)" stroke-width="1.5"></path><path d="M390.43 514.56L396.55 648.2" stroke="hsl(261.9, 58.2%, 63.5%)" stroke-width="1.5"></path><path d="M390.43 514.56L495.49 666.24" stroke="hsl(261.9, 58.2%, 63.5%)" stroke-width="1.5"></path><path d="M390.43 514.56L253.41 657.16" stroke="hsl(261.9, 58.2%, 63.5%)" stroke-width="1.5"></path><path d="M396.55 648.2L396.55 648.2" stroke="hsl(261.9, 58.2%, 63.5%)" stroke-width="1.5"></path><path d="M396.55 648.2L495.49 666.24" stroke="hsl(261.9, 58.2%, 63.5%)" stroke-width="1.5"></path><path d="M396.55 648.2L487.82 532.24" stroke="hsl(261.9, 58.2%, 63.5%)" stroke-width="1.5"></path><path d="M396.55 648.2L242.81 498.61" stroke="hsl(261.9, 58.2%, 63.5%)" stroke-width="1.5"></path><path d="M396.55 648.2L700.8 541.12" stroke="hsl(261.9, 58.2%, 63.5%)" stroke-width="1.5"></path><path d="M487.82 532.24L487.82 532.24" stroke="hsl(261.9, 58.2%, 63.5%)" stroke-width="1.5"></path><path d="M487.82 532.24L495.49 666.24" stroke="hsl(261.9, 58.2%, 63.5%)" stroke-width="1.5"></path><path d="M495.49 666.24L495.49 666.24" stroke="hsl(261.9, 58.2%, 63.5%)" stroke-width="1.5"></path><path d="M495.49 666.24L700.8 541.12" stroke="hsl(261.9, 58.2%, 63.5%)" stroke-width="1.5"></path><path d="M678.6 369.8L678.6 369.8" stroke="hsl(261.9, 58.2%, 63.5%)" stroke-width="1.5"></path><path d="M678.6 369.8L813.8 372.2" stroke="hsl(261.9, 58.2%, 63.5%)" stroke-width="1.5"></path><path d="M678.6 369.8L700.8 541.12" stroke="hsl(261.9, 58.2%, 63.5%)" stroke-width="1.5"></path><path d="M678.6 369.8L822.62 516.55" stroke="hsl(261.9, 58.2%, 63.5%)" stroke-width="1.5"></path><path d="M678.6 369.8L487.82 532.24" stroke="hsl(261.9, 58.2%, 63.5%)" stroke-width="1.5"></path><path d="M678.6 369.8L941.38 258.64" stroke="hsl(261.9, 58.2%, 63.5%)" stroke-width="1.5"></path><path d="M678.6 369.8L804.05 646.59" stroke="hsl(261.9, 58.2%, 63.5%)" stroke-width="1.5"></path><path d="M700.8 541.12L700.8 541.12" stroke="hsl(261.9, 58.2%, 63.5%)" stroke-width="1.5"></path><path d="M700.8 541.12L822.62 516.55" stroke="hsl(261.9, 58.2%, 63.5%)" stroke-width="1.5"></path><path d="M700.8 541.12L804.05 646.59" stroke="hsl(261.9, 58.2%, 63.5%)" stroke-width="1.5"></path><path d="M813.8 372.2L813.8 372.2" stroke="hsl(261.9, 58.2%, 63.5%)" stroke-width="1.5"></path><path d="M813.8 372.2L822.62 516.55" stroke="hsl(261.9, 58.2%, 63.5%)" stroke-width="1.5"></path><path d="M813.8 372.2L941.38 258.64" stroke="hsl(261.9, 58.2%, 63.5%)" stroke-width="1.5"></path><path d="M822.62 516.55L822.62 516.55" stroke="hsl(261.9, 58.2%, 63.5%)" stroke-width="1.5"></path><path d="M822.62 516.55L804.05 646.59" stroke="hsl(261.9, 58.2%, 63.5%)" stroke-width="1.5"></path><path d="M822.62 516.55L975.1 562.3" stroke="hsl(261.9, 58.2%, 63.5%)" stroke-width="1.5"></path><path d="M804.05 646.59L804.05 646.59" stroke="hsl(261.9, 58.2%, 63.5%)" stroke-width="1.5"></path><path d="M804.05 646.59L975.1 562.3" stroke="hsl(261.9, 58.2%, 63.5%)" stroke-width="1.5"></path><path d="M941.38 258.64L941.38 258.64" stroke="hsl(261.9, 58.2%, 63.5%)" stroke-width="1.5"></path><path d="M941.38 258.64L1000.39 340.95" stroke="hsl(261.9, 58.2%, 63.5%)" stroke-width="1.5"></path><path d="M941.38 258.64L1160.25 225.03" stroke="hsl(261.9, 58.2%, 63.5%)" stroke-width="1.5"></path><path d="M941.38 258.64L1126.17 399.49" stroke="hsl(261.9, 58.2%, 63.5%)" stroke-width="1.5"></path><path d="M1000.39 340.95L1000.39 340.95" stroke="hsl(261.9, 58.2%, 63.5%)" stroke-width="1.5"></path><path d="M1000.39 340.95L1126.17 399.49" stroke="hsl(261.9, 58.2%, 63.5%)" stroke-width="1.5"></path><path d="M1000.39 340.95L813.8 372.2" stroke="hsl(261.9, 58.2%, 63.5%)" stroke-width="1.5"></path><path d="M1000.39 340.95L1160.25 225.03" stroke="hsl(261.9, 58.2%, 63.5%)" stroke-width="1.5"></path><path d="M1000.39 340.95L1125.77 498.13" stroke="hsl(261.9, 58.2%, 63.5%)" stroke-width="1.5"></path><path d="M1000.39 340.95L975.1 562.3" stroke="hsl(261.9, 58.2%, 63.5%)" stroke-width="1.5"></path><path d="M975.1 562.3L975.1 562.3" stroke="hsl(261.9, 58.2%, 63.5%)" stroke-width="1.5"></path><path d="M975.1 562.3L1125.77 498.13" stroke="hsl(261.9, 58.2%, 63.5%)" stroke-width="1.5"></path><path d="M1160.25 225.03L1160.25 225.03" stroke="hsl(261.9, 58.2%, 63.5%)" stroke-width="1.5"></path><path d="M1160.25 225.03L1306.81 228.1" stroke="hsl(261.9, 58.2%, 63.5%)" stroke-width="1.5"></path><path d="M1160.25 225.03L1126.17 399.49" stroke="hsl(261.9, 58.2%, 63.5%)" stroke-width="1.5"></path><path d="M1126.17 399.49L1126.17 399.49" stroke="hsl(261.9, 58.2%, 63.5%)" stroke-width="1.5"></path><path d="M1126.17 399.49L1125.77 498.13" stroke="hsl(261.9, 58.2%, 63.5%)" stroke-width="1.5"></path><path d="M1126.17 399.49L1265.49 393.55" stroke="hsl(261.9, 58.2%, 63.5%)" stroke-width="1.5"></path><path d="M1126.17 399.49L1296.51 523.34" stroke="hsl(261.9, 58.2%, 63.5%)" stroke-width="1.5"></path><path d="M1125.77 498.13L1125.77 498.13" stroke="hsl(261.9, 58.2%, 63.5%)" stroke-width="1.5"></path><path d="M1306.81 228.1L1306.81 228.1" stroke="hsl(261.9, 58.2%, 63.5%)" stroke-width="1.5"></path><path d="M1306.81 228.1L1428.17 262.04" stroke="hsl(261.9, 58.2%, 63.5%)" stroke-width="1.5"></path><path d="M1265.49 393.55L1265.49 393.55" stroke="hsl(261.9, 58.2%, 63.5%)" stroke-width="1.5"></path><path d="M1265.49 393.55L1306.81 228.1" stroke="hsl(261.9, 58.2%, 63.5%)" stroke-width="1.5"></path><path d="M1265.49 393.55L1125.77 498.13" stroke="hsl(261.9, 58.2%, 63.5%)" stroke-width="1.5"></path><path d="M1447.44 -74.89L1447.44 -74.89" stroke="hsl(261.9, 58.2%, 63.5%)" stroke-width="1.5"></path><path d="M1447.44 -74.89L1563.52 -71.39" stroke="hsl(261.9, 58.2%, 63.5%)" stroke-width="1.5"></path><path d="M1447.44 -74.89L1415.51 78.1" stroke="hsl(261.9, 58.2%, 63.5%)" stroke-width="1.5"></path><path d="M1415.51 78.1L1415.51 78.1" stroke="hsl(261.9, 58.2%, 63.5%)" stroke-width="1.5"></path><path d="M1415.51 78.1L1541.65 111.28" stroke="hsl(261.9, 58.2%, 63.5%)" stroke-width="1.5"></path><path d="M1428.17 262.04L1428.17 262.04" stroke="hsl(261.9, 58.2%, 63.5%)" stroke-width="1.5"></path><path d="M1428.17 262.04L1545.97 219.51" stroke="hsl(261.9, 58.2%, 63.5%)" stroke-width="1.5"></path><path d="M1428.17 262.04L1450.56 394.1" stroke="hsl(261.9, 58.2%, 63.5%)" stroke-width="1.5"></path><path d="M1428.17 262.04L1415.51 78.1" stroke="hsl(261.9, 58.2%, 63.5%)" stroke-width="1.5"></path><path d="M1450.56 394.1L1450.56 394.1" stroke="hsl(261.9, 58.2%, 63.5%)" stroke-width="1.5"></path><path d="M1450.56 394.1L1593.35 404.49" stroke="hsl(261.9, 58.2%, 63.5%)" stroke-width="1.5"></path><path d="M1450.56 394.1L1458.62 555.26" stroke="hsl(261.9, 58.2%, 63.5%)" stroke-width="1.5"></path><path d="M1450.56 394.1L1265.49 393.55" stroke="hsl(261.9, 58.2%, 63.5%)" stroke-width="1.5"></path><path d="M1458.62 555.26L1458.62 555.26" stroke="hsl(261.9, 58.2%, 63.5%)" stroke-width="1.5"></path><path d="M1458.62 555.26L1586.35 533.91" stroke="hsl(261.9, 58.2%, 63.5%)" stroke-width="1.5"></path><path d="M1458.62 555.26L1456.27 698.27" stroke="hsl(261.9, 58.2%, 63.5%)" stroke-width="1.5"></path><path d="M1458.62 555.26L1564.73 656.41" stroke="hsl(261.9, 58.2%, 63.5%)" stroke-width="1.5"></path><path d="M1456.27 698.27L1456.27 698.27" stroke="hsl(261.9, 58.2%, 63.5%)" stroke-width="1.5"></path><path d="M1456.27 698.27L1564.73 656.41" stroke="hsl(261.9, 58.2%, 63.5%)" stroke-width="1.5"></path><path d="M1456.27 698.27L1586.35 533.91" stroke="hsl(261.9, 58.2%, 63.5%)" stroke-width="1.5"></path><path d="M1456.27 698.27L1296.51 523.34" stroke="hsl(261.9, 58.2%, 63.5%)" stroke-width="1.5"></path><path d="M1456.27 698.27L1450.56 394.1" stroke="hsl(261.9, 58.2%, 63.5%)" stroke-width="1.5"></path><path d="M1563.52 -71.39L1563.52 -71.39" stroke="hsl(261.9, 58.2%, 63.5%)" stroke-width="1.5"></path><path d="M1563.52 -71.39L1541.65 111.28" stroke="hsl(261.9, 58.2%, 63.5%)" stroke-width="1.5"></path><path d="M1563.52 -71.39L1415.51 78.1" stroke="hsl(261.9, 58.2%, 63.5%)" stroke-width="1.5"></path><path d="M1541.65 111.28L1541.65 111.28" stroke="hsl(261.9, 58.2%, 63.5%)" stroke-width="1.5"></path><path d="M1541.65 111.28L1545.97 219.51" stroke="hsl(261.9, 58.2%, 63.5%)" stroke-width="1.5"></path><path d="M1545.97 219.51L1545.97 219.51" stroke="hsl(261.9, 58.2%, 63.5%)" stroke-width="1.5"></path><path d="M1545.97 219.51L1593.35 404.49" stroke="hsl(261.9, 58.2%, 63.5%)" stroke-width="1.5"></path><path d="M1545.97 219.51L1415.51 78.1" stroke="hsl(261.9, 58.2%, 63.5%)" stroke-width="1.5"></path><path d="M1593.35 404.49L1593.35 404.49" stroke="hsl(261.9, 58.2%, 63.5%)" stroke-width="1.5"></path><path d="M1593.35 404.49L1586.35 533.91" stroke="hsl(261.9, 58.2%, 63.5%)" stroke-width="1.5"></path><path d="M1593.35 404.49L1458.62 555.26" stroke="hsl(261.9, 58.2%, 63.5%)" stroke-width="1.5"></path><path d="M1593.35 404.49L1428.17 262.04" stroke="hsl(261.9, 58.2%, 63.5%)" stroke-width="1.5"></path><path d="M1586.35 533.91L1586.35 533.91" stroke="hsl(261.9, 58.2%, 63.5%)" stroke-width="1.5"></path><path d="M1586.35 533.91L1564.73 656.41" stroke="hsl(261.9, 58.2%, 63.5%)" stroke-width="1.5"></path><path d="M1586.35 533.91L1450.56 394.1" stroke="hsl(261.9, 58.2%, 63.5%)" stroke-width="1.5"></path><path d="M1564.73 656.41L1564.73 656.41" stroke="hsl(261.9, 58.2%, 63.5%)" stroke-width="1.5"></path><path d="M1564.73 656.41L1593.35 404.49" stroke="hsl(261.9, 58.2%, 63.5%)" stroke-width="1.5"></path><path d="M1564.73 656.41L1450.56 394.1" stroke="hsl(261.9, 58.2%, 63.5%)" stroke-width="1.5"></path><circle r="25" cx="67.49" cy="553.49" fill="url(&quot;#SvgjsRadialGradient1021&quot;)"></circle><circle r="25" cx="242.81" cy="498.61" fill="url(&quot;#SvgjsRadialGradient1021&quot;)"></circle><circle r="25" cx="253.41" cy="657.16" fill="url(&quot;#SvgjsRadialGradient1021&quot;)"></circle><circle r="25" cx="961.37" cy="665.65" fill="url(&quot;#SvgjsRadialGradient1021&quot;)"></circle><circle r="25" cx="1153.75" cy="703.62" fill="url(&quot;#SvgjsRadialGradient1021&quot;)"></circle><circle r="25" cx="1291.05" cy="-77.69" fill="url(&quot;#SvgjsRadialGradient1021&quot;)"></circle><circle r="25" cx="1280.97" cy="81.43" fill="url(&quot;#SvgjsRadialGradient1021&quot;)"></circle><circle r="25" cx="1296.51" cy="523.34" fill="url(&quot;#SvgjsRadialGradient1021&quot;)"></circle><circle r="5" cx="-63.39" cy="531.51" fill="#b49ae2"></circle><circle r="5" cx="-107.66" cy="670.7" fill="#b49ae2"></circle><circle r="5" cx="390.43" cy="514.56" fill="#b49ae2"></circle><circle r="5" cx="396.55" cy="648.2" fill="#b49ae2"></circle><circle r="5" cx="487.82" cy="532.24" fill="#b49ae2"></circle><circle r="5" cx="495.49" cy="666.24" fill="#b49ae2"></circle><circle r="5" cx="678.6" cy="369.8" fill="#b49ae2"></circle><circle r="5" cx="700.8" cy="541.12" fill="#b49ae2"></circle><circle r="5" cx="813.8" cy="372.2" fill="#b49ae2"></circle><circle r="5" cx="822.62" cy="516.55" fill="#b49ae2"></circle><circle r="5" cx="804.05" cy="646.59" fill="#b49ae2"></circle><circle r="5" cx="941.38" cy="258.64" fill="#b49ae2"></circle><circle r="5" cx="1000.39" cy="340.95" fill="#b49ae2"></circle><circle r="5" cx="975.1" cy="562.3" fill="#b49ae2"></circle><circle r="5" cx="1160.25" cy="225.03" fill="#b49ae2"></circle><circle r="5" cx="1126.17" cy="399.49" fill="#b49ae2"></circle><circle r="5" cx="1125.77" cy="498.13" fill="#b49ae2"></circle><circle r="5" cx="1306.81" cy="228.1" fill="#b49ae2"></circle><circle r="5" cx="1265.49" cy="393.55" fill="#b49ae2"></circle><circle r="5" cx="1447.44" cy="-74.89" fill="#b49ae2"></circle><circle r="5" cx="1415.51" cy="78.1" fill="#b49ae2"></circle><circle r="5" cx="1428.17" cy="262.04" fill="#b49ae2"></circle><circle r="5" cx="1450.56" cy="394.1" fill="#b49ae2"></circle><circle r="5" cx="1458.62" cy="555.26" fill="#b49ae2"></circle><circle r="5" cx="1456.27" cy="698.27" fill="#b49ae2"></circle><circle r="5" cx="1563.52" cy="-71.39" fill="#b49ae2"></circle><circle r="5" cx="1541.65" cy="111.28" fill="#b49ae2"></circle><circle r="5" cx="1545.97" cy="219.51" fill="#b49ae2"></circle><circle r="5" cx="1593.35" cy="404.49" fill="#b49ae2"></circle><circle r="5" cx="1586.35" cy="533.91" fill="#b49ae2"></circle><circle r="5" cx="1564.73" cy="656.41" fill="#b49ae2"></circle></g><defs><mask id="SvgjsMask1020"><rect width="1440" height="560" fill="#ffffff"></rect></mask><radialGradient id="SvgjsRadialGradient1021"><stop stop-color="#ffffff" offset="0.1"></stop><stop stop-color="rgba(105, 52, 197, 1)" offset="0.2"></stop><stop stop-color="rgba(105, 52, 197, 0)" offset="1"></stop></radialGradient></defs></svg>